PathFileType	4	(X/Y/Z)	/Users/itak/Documents/Research/Walk-IL/dataset/trc/00011_00004.trc
DataRate	CameraRate	NumFrames	NumMarkers	Units	OrigDataRate	OrigDataStartFrame	OrigNumFrames
100.000000	100.000000	4	53	mm	100.000000	275	551
Frame#	Time	RPSI			LPSI			L3			STRN			T10			C7			CLAV			RBAK			LBAK			LSHO			LUPA			LAEL			LAOL			LWTS			LWPS			LFRA			LIFD			LHPS			LHTS			RSHO			RUPA			RAEL			RAOL			RWTS			RWPS			RFRA			RIFD			RHTS			RHPS			RBHD			LFHD			RFHD			LBHD			LHIP			RHIP			RASI			LASI			LKNE			LTHI			LANK			LTIP			LTOE			LMT1			LMT5			LHEE			RKNE			RTHI			RANK			RTIP			RTOE			RMT1			RMT5			RHEE			
		X1	Y1	Z1	X2	Y2	Z2	X3	Y3	Z3	X4	Y4	Z4	X5	Y5	Z5	X6	Y6	Z6	X7	Y7	Z7	X8	Y8	Z8	X9	Y9	Z9	X10	Y10	Z10	X11	Y11	Z11	X12	Y12	Z12	X13	Y13	Z13	X14	Y14	Z14	X15	Y15	Z15	X16	Y16	Z16	X17	Y17	Z17	X18	Y18	Z18	X19	Y19	Z19	X20	Y20	Z20	X21	Y21	Z21	X22	Y22	Z22	X23	Y23	Z23	X24	Y24	Z24	X25	Y25	Z25	X26	Y26	Z26	X27	Y27	Z27	X28	Y28	Z28	X29	Y29	Z29	X30	Y30	Z30	X31	Y31	Z31	X32	Y32	Z32	X33	Y33	Z33	X34	Y34	Z34	X35	Y35	Z35	X36	Y36	Z36	X37	Y37	Z37	X38	Y38	Z38	X39	Y39	Z39	X40	Y40	Z40	X41	Y41	Z41	X42	Y42	Z42	X43	Y43	Z43	X44	Y44	Z44	X45	Y45	Z45	X46	Y46	Z46	X47	Y47	Z47	X48	Y48	Z48	X49	Y49	Z49	X50	Y50	Z50	X51	Y51	Z51	X52	Y52	Z52	X53	Y53	Z53	

276	2.75	24.08261489868164	1041.035278320312	-185.8939361572266	23.2712287902832	1030.851318359375	-348.4318237304688	22.31407737731934	1102.948608398438	-273.35009765625	263.9594116210938	1282.702758789062	-276.2151794433594	16.76980781555176	1248.79541015625	-265.7933959960938	74.74280548095703	1513.465454101562	-281.694580078125	229.4079895019531	1410.973022460938	-282.5929870605469	21.95060539245605	1380.327758789062	-195.3133087158203	52.47179412841797	1471.366821289062	-377.6922302246094	152.9753723144531	1469.817626953125	-456.5361328125	103.8050918579102	1348.474487304688	-528.84423828125	67.16557312011719	1135.187255859375	-552.9608764648438	18.93914985656738	1131.2900390625	-458.5116882324219	111.0532760620117	869.0953979492188	-503.3876342773438	29.24167251586914	870.1905517578125	-537.9420166015625	58.59842300415039	1018.572448730469	-559.1703491210938	101.6987686157227	680.0135498046875	-485.7778625488281	44.35487747192383	776.0670776367188	-539.3648681640625	112.695671081543	773.3980102539062	-518.519775390625	162.4905853271484	1498.35205078125	-111.3480758666992	156.7925262451172	1427.0556640625	-36.11558151245117	157.3534851074219	1154.548095703125	-0.742928683757782	138.0082244873047	1122.736206054688	-94.68813323974609	372.6528015136719	983.0971069335938	-93.13137817382812	344.0421142578125	938.2814331054688	-18.22085762023926	201.2630157470703	1084.555419921875	5.504246711730957	480.3116149902344	833.1148681640625	-131.7114105224609	458.8933715820312	906.2674560546875	-100.6554794311523	427.1111755371094	873.9235229492188	-40.82354736328125	126.8069534301758	1681.414794921875	-205.2878570556641	301.8011779785156	1709.10009765625	-320.7272644042969	298.4453125	1707.860473632812	-221.8349914550781	122.427360534668	1686.728637695312	-349.7040405273438	122.1893310546875	931.8494262695312	-453.9275512695312	133.4195404052734	934.9495849609375	-80.41315460205078	238.3056488037109	959.55029296875	-152.2687377929688	235.1161193847656	976.1068725585938	-387.6877136230469	325.3720397949219	537.6344604492188	-419.2538757324219	245.1140289306641	648.4078979492188	-456.2126770019531	394.9459228515625	48.14963150024414	-453.193359375	333.6774291992188	290.6389465332031	-454.8744201660156	602.707763671875	104.7119140625	-376.2755432128906	543.5834350585938	94.34658050537109	-361.9967041015625	515.3314819335938	83.67881774902344	-464.0338134765625	324.3687438964844	31.64932250976562	-404.2167663574219	123.6612243652344	494.0033569335938	-119.2888641357422	146.796630859375	766.486083984375	-79.91281127929688	-116.6619873046875	52.36100769042969	-165.8916625976562	74.27032470703125	371.2509765625	-124.8656311035156	113.7126312255859	41.83649444580078	-201.8095092773438	52.24404907226562	47.37973022460938	-235.0984497070312	30.21488189697266	36.71469116210938	-138.4906005859375	-172.3967132568359	64.49739074707031	-210.5123138427734	
277	2.76	15.74384021759033	1041.989379882812	-183.7315826416016	14.57566070556641	1032.0654296875	-346.2879638671875	13.90599918365479	1104.070678710938	-271.3132934570312	255.8090362548828	1283.608032226562	-274.1227722167969	8.376716613769531	1250.09765625	-264.1744995117188	66.93537139892578	1514.63623046875	-279.9967651367188	221.4875793457031	1411.925415039062	-280.5321044921875	13.76676368713379	1381.572387695312	-193.7608795166016	44.85322189331055	1472.638305664062	-376.0881042480469	145.5083465576172	1470.910888671875	-454.6436157226562	96.54554748535156	1349.566162109375	-527.0280151367188	60.12214660644531	1136.20166015625	-551.1617431640625	11.91237926483154	1132.154418945312	-456.7496032714844	105.4934539794922	870.4508056640625	-501.6168212890625	23.63373947143555	871.0162963867188	-536.0551147460938	52.08209991455078	1019.557373046875	-557.3975830078125	97.05887603759766	680.9733276367188	-483.8070678710938	39.37764358520508	777.020751953125	-537.5452880859375	107.7368240356445	774.8204956054688	-516.8285522460938	154.2883758544922	1499.365478515625	-109.432502746582	148.2090606689453	1428.110961914062	-34.21608352661133	147.8603820800781	1155.707641601562	1.566645383834839	128.5739593505859	1123.817626953125	-92.34566497802734	362.0164184570312	982.1340942382812	-89.80490875244141	332.8204040527344	937.8532104492188	-14.81161880493164	191.3046875	1085.465942382812	8.10905647277832	468.2438659667969	830.9993896484375	-127.7425994873047	447.441650390625	904.3955688476562	-96.95997619628906	415.2906494140625	872.6253051757812	-37.06190872192383	119.3933792114258	1682.474731445312	-203.1048278808594	294.340576171875	1709.838134765625	-318.6044311523438	291.0934753417969	1708.477661132812	-219.7316741943359	114.907112121582	1688.012329101562	-347.4980773925781	113.2022399902344	932.9758911132812	-452.2145690917969	125.1949844360352	935.6592407226562	-78.68412017822266	229.9303588867188	960.3744506835938	-150.5180969238281	226.2004241943359	976.937744140625	-385.9039611816406	318.6474304199219	539.1900634765625	-417.5046081542969	237.5305480957031	649.8276977539062	-455.0685119628906	382.51904296875	48.67113494873047	-451.1524047851562	324.2800598144531	291.8676452636719	-453.1692504882812	590.9903564453125	103.2905349731445	-375.1112670898438	531.8321533203125	93.54950714111328	-360.6161499023438	503.1936645507812	82.76988983154297	-462.4928588867188	311.9338684082031	33.03252029418945	-401.9165344238281	118.8224563598633	494.6820678710938	-118.8999557495117	139.7366790771484	767.1683349609375	-78.37220764160156	-116.9415130615234	51.1617317199707	-166.3288116455078	70.63289642333984	371.5559692382812	-124.7599334716797	113.6569595336914	41.84049987792969	-201.8313446044922	52.1296272277832	47.0987548828125	-235.3372039794922	29.99771499633789	36.6923713684082	-138.6495666503906	-172.7237396240234	62.59697341918945	-211.0374298095703	
278	2.77	7.637734889984131	1042.966552734375	-181.5450439453125	5.948188304901123	1033.378051757812	-344.1319885253906	5.594813823699951	1105.304321289062	-269.2478332519531	247.7212677001953	1284.691040039062	-272.146728515625	0.002398070879280567	1251.579833984375	-262.6375122070312	59.16093063354492	1515.962768554688	-278.4024047851562	213.6007843017578	1413.046264648438	-278.5782775878906	5.625104427337646	1382.977783203125	-192.301513671875	37.26812744140625	1474.059814453125	-374.5843811035156	138.0657196044922	1472.16845703125	-452.8540649414062	89.36222076416016	1350.818725585938	-525.3389282226562	53.25310516357422	1137.350219726562	-549.5093994140625	5.011497497558594	1133.15185546875	-455.1536865234375	100.2245330810547	871.9925537109375	-499.9259948730469	18.34772872924805	871.9650268554688	-534.3163452148438	45.80893707275391	1020.678833007812	-555.754150390625	92.97272491455078	682.2689208984375	-482.0101013183594	34.78754425048828	778.1102294921875	-535.8475952148438	103.1378936767578	776.443359375	-515.1985473632812	146.1230316162109	1500.527709960938	-107.6212387084961	139.6427307128906	1429.317016601562	-32.42897415161133	138.2233581542969	1157.034790039062	3.750975608825684	119.0282669067383	1125.074584960938	-90.13941955566406	351.0337829589844	980.9973754882812	-86.36275482177734	321.1171569824219	937.3223266601562	-11.30710983276367	181.1086273193359	1086.50146484375	10.63638496398926	455.6073303222656	828.5444946289062	-123.5050888061523	435.5057373046875	902.2161254882812	-93.05191802978516	402.9031372070312	871.0968627929688	-33.09983825683594	111.9404449462891	1683.657104492188	-201.0355987548828	286.8779602050781	1710.78271484375	-316.5440368652344	283.7153015136719	1709.26416015625	-217.6976928710938	107.3925857543945	1689.451416015625	-345.4037475585938	104.3080825805664	934.3500366210938	-450.6173400878906	117.2836303710938	936.3883666992188	-77.04184722900391	221.7998657226562	961.3106079101562	-148.9579315185547	217.4120941162109	978.0424194335938	-384.3085632324219	312.278076171875	540.9406127929688	-415.9432067871094	230.3675537109375	651.5853881835938	-453.9645080566406	368.2863159179688	48.98707580566406	-448.838134765625	314.2449340820312	293.1018981933594	-451.3575134277344	577.663330078125	100.9692077636719	-373.8599548339844	518.4684448242188	92.05970764160156	-359.1006164550781	489.3283081054688	81.18132781982422	-460.7809448242188	297.6663818359375	34.59752655029297	-399.2664184570312	114.0514144897461	495.48046875	-118.7337493896484	132.9354705810547	767.9080810546875	-77.07379150390625	-117.1873931884766	50.09532928466797	-166.7593994140625	67.02664947509766	372.01806640625	-124.7893371582031	113.6120223999023	41.8502082824707	-201.8444976806641	52.04808044433594	46.83555603027344	-235.5622711181641	29.82576942443848	36.70162200927734	-138.8202362060547	-172.9723815917969	60.85908889770508	-211.5393218994141	
279	2.78	-0.2644670307636261	1043.963623046875	-179.3489685058594	-2.6031653881073	1034.77392578125	-341.9722900390625	-2.624333143234253	1106.64306640625	-267.1536254882812	239.7063751220703	1285.940307617188	-270.2886962890625	-8.352414131164551	1253.210327148438	-261.1545715332031	51.41229629516602	1517.419677734375	-276.8946533203125	205.7462921142578	1414.325317382812	-276.7323608398438	-2.460968494415283	1384.519775390625	-190.9082336425781	29.68951034545898	1475.604370117188	-373.1566772460938	130.6217193603516	1473.571166992188	-451.1587829589844	82.23105621337891	1352.21337890625	-523.7645263671875	46.56562042236328	1138.616943359375	-548.0003051757812	-1.774391651153564	1134.257202148438	-453.7288818359375	95.23529815673828	873.7000122070312	-498.3138732910156	13.3771390914917	873.0200805664062	-532.7430419921875	39.78502655029297	1021.919799804688	-554.244140625	89.58205413818359	684.0457153320312	-480.4913635253906	30.57256889343262	779.3167724609375	-534.28466796875	98.89568328857422	778.2417602539062	-513.624267578125	138.0097961425781	1501.82421875	-105.9106903076172	131.1201629638672	1430.661865234375	-30.74879264831543	128.4692687988281	1158.517333984375	5.808489799499512	109.3987350463867	1126.50341796875	-88.07232666015625	339.7123413085938	979.70458984375	-82.81349182128906	308.9462585449219	936.6974487304688	-7.722784996032715	170.6913452148438	1087.65478515625	13.07866764068604	442.42431640625	825.786865234375	-119.0032043457031	423.1070251464844	899.7669067382812	-88.93150329589844	389.9559631347656	869.3595581054688	-28.95158386230469	104.4513854980469	1684.938842773438	-199.0803833007812	279.4091491699219	1711.909423828125	-314.554443359375	276.3108825683594	1710.20849609375	-215.7411499023438	99.88239288330078	1691.011596679688	-343.4217834472656	95.5167236328125	935.9636840820312	-449.1319885253906	109.6533813476562	937.1334838867188	-75.48075866699219	213.8963775634766	962.3553466796875	-147.586181640625	208.7619171142578	979.4153442382812	-382.8981323242188	306.1359252929688	542.8341674804688	-414.59130859375	223.5126495361328	653.6336669921875	-452.8651428222656	352.3817443847656	49.16436386108398	-446.27685546875	303.5713195800781	294.3367309570312	-449.45556640625	562.7633666992188	97.99928283691406	-372.424072265625	503.5282592773438	90.07441711425781	-357.3837280273438	473.8394165039062	79.10706329345703	-458.8554077148438	281.7032775878906	36.31274795532227	-396.3401184082031	109.2863998413086	496.3831787109375	-118.7470397949219	126.3523406982422	768.7003784179688	-76.00469970703125	-117.4074249267578	49.12646865844727	-167.1759796142578	63.39009094238281	372.6184997558594	-124.9275054931641	113.5746841430664	41.86457061767578	-201.8500061035156	51.99945831298828	46.58824920654297	-235.7654724121094	29.69491958618164	36.73843383789062	-138.9959869384766	-173.1626434326172	59.24697113037109	-212.0253601074219	
